<svg xmlns="http://www.w3.org/2000/svg" xmlns:xlink="http://www.w3.org/1999/xlink" width="168" height="24" fill="none" xmlns:v="https://vecta.io/nano"><g clip-path="url(#B)"><path d="M168 18.626c0 .757-.655 1.374-1.458 1.374h-21.084c-.803 0-1.458-.618-1.458-1.374V5.374c0-.757.655-1.374 1.458-1.374h21.077c.8 0 1.458.618 1.458 1.374v13.251H168z" fill="url(#A)"/><g fill-rule="evenodd"><path d="M156.741 8.03c-.005.005-.009.851-.009 1.88v1.871h3.581 3.581l.149-.04a1.84 1.84 0 0 0 1.425-1.833c.014-.255-.034-.509-.14-.741-.191-.512-.738-.959-1.347-1.102l-.124-.029h-3.552l-3.561.005m-7.217.043c-.656.081-1.275.35-1.782.775s-.879.988-1.073 1.62c-.13.424-.146.58-.146 1.444s.008.945.118 1.373c.159.572.463 1.093.882 1.513a3.46 3.46 0 0 0 1.511.886 2.65 2.65 0 0 0 .359.08c.432.071 3.87.075 4.29.005 1.707-.285 2.861-1.641 2.897-3.392l.007-.359h-2.522-2.522v-.234h2.522 2.522l-.006-.322c.001-.445-.086-.886-.256-1.297-.231-.564-.608-1.056-1.092-1.426a3.43 3.43 0 0 0-1.662-.679c-.283-.037-3.765-.037-4.053 0m7.213 3.972v1.886 1.867h3.487l3.858-.064c.261-.071.504-.197.712-.369s.377-.389.495-.632.181-.51.187-.781a1.87 1.87 0 0 0-.155-.788c-.191-.438-.596-.836-1.006-.988a2.72 2.72 0 0 0-.351-.109l-.123-.028h-3.548l-3.556.013" fill="#fbfbfb"/><path d="M156.732 8.018c0 .009 2.357.009 5.731 0 .693 0-.312-.005-2.235-.006s-3.496 0-3.496.006zm7.015.012c.015.004.03.004.045 0s0-.005-.022-.005-.035 0-.023.005zm-13.042.014h1.698c.467 0 .085 0-.849 0h-.849zm-1.174.025c.015.004.03.004.045 0s0-.006-.022-.006-.035 0-.023.006zm4.019 0a.1.1 0 0 0 .046 0c.013 0 0-.006-.022-.006s-.036 0-.024.006zm11.29.411l.1.102.098.102-.097-.101-.104-.098m-9.253.569a1.63 1.63 0 0 0 .123.118 1.45 1.45 0 0 0-.109-.118l-.124-.117a1.41 1.41 0 0 0 .11.117zm-8.08.017l-.037.042.042-.039c.039-.036.048-.047.038-.047-.015.013-.029.028-.043.043zm17.979.835c0 .09 0 .119.004.075a1.36 1.36 0 0 0 0-.156c0-.041-.004-.004-.004.082zm-.481 1.258l-.038.042.042-.038a.41.41 0 0 0 .042-.042c0-.011-.011 0-.046.038zm-8.42.048c0 .025 0 .036.006.023s.004-.031 0-.046-.006 0-.006.022zm-10.055.072c0 .029 0 .039.005.022s.004-.035 0-.052-.006 0-.005.03zm18.326.03l-.045.049.05-.045a.47.47 0 0 0 .048-.048c0-.01-.011 0-.053.045zm-18.34.617v.276-.56c0-.152 0-.023 0 .284zm10.078-.303v.153h-2.52-2.52v.227-.111-.111h2.515l2.524-.017c.004-.053.004-.106 0-.159v-.143.153m1.887.163h3.503c.962 0 .18 0-1.753 0h-1.753m-1.886.433v.09-.189c0-.052 0-.01 0 .09m8.327.351a.51.51 0 0 0 .07.065.43.43 0 0 0-.057-.065c-.022-.024-.045-.045-.07-.065.016.024.035.046.057.065zm-18.398.02c0 .028 0 .039.006.023s.003-.035 0-.052-.007 0-.006.03zm18.955 1.313c0 .09 0 .119.005.075v-.156c0-.04-.005 0-.005.082zm-9.775.81l-.038.042.042-.038c.015-.013.029-.027.042-.043 0-.01-.011 0-.046.039zm-8.175.12l.156.149a2.38 2.38 0 0 0-.143-.149l-.155-.15c-.004 0 .061.067.142.15zm7.922.133l-.045.049.049-.045c.045-.042.055-.053.045-.053a.51.51 0 0 0-.049.049zm-6.288.784c.014.006.03.01.045.011-.02-.017-.036-.021-.052-.022zm14.659.04c.015.003.03.003.045 0s0-.005-.023-.005-.035 0-.022.005zm-.143.013c.023.003.047.003.071 0s0-.005-.035-.005-.056 0-.036.005zm-13.9.026a.67.67 0 0 0 .104 0c.026 0 0 0-.056 0h-.048zm3.46 0a.76.76 0 0 0 .111 0c.03 0 .005 0-.056 0h-.055z" fill="#8cb4cc"/><path d="M158.458 8.005h3.447c.949 0 .179 0-1.72 0h-1.727zm-1.733 1.864v.92-1.841c0-.507 0-.09 0 .921zm-.132 1.548c0 .04 0 .056.005.036s.003-.048 0-.072-.005 0-.005.036zm-4.133.608h4.133c-.007-.009-1.14-.008-2.525-.006l-1.609.006m5.999 0h3.447c.949 0 .179 0-1.72 0h-1.727zm-1.733 1.886v.941-1.88c0-.517 0-.09 0 .94zm-.133-1.45c0 .036 0 .049.006.029s.003-.043 0-.065c0-.016-.006 0-.006.036zm8.328 2.794l-.038.042.042-.039c.04-.035.049-.046.039-.046-.016.012-.03.027-.043.042z" fill="#83b4cc"/><path d="M163.628 8c.031.007.063.011.096.012h.052a.43.43 0 0 0-.148-.008m-12.918.031h1.692c.467 0 .09 0-.842 0h-.85zm13.141 0c.015.004.03.004.045 0s0-.005-.022-.005-.035 0-.023.005zm-14.104.013c.018.004.035.004.053 0 .012 0 0-.006-.03-.005s-.039 0-.023.005zm3.578 0c.019.004.039.004.058 0s0-.005-.03-.005-.045 0-.028.005zm10.755.03a.14.14 0 0 0 .045.012c-.021-.017-.036-.021-.052-.022zm-9.991.09c.014.006.03.01.045.011-.021-.017-.036-.021-.052-.022zm.514.189c.014.008.029.015.045.018.007 0 0-.008-.019-.018a.13.13 0 0 0-.046-.019c-.007 0 0 .008.02.019zm10.331.208c.028.032.058.062.09.09a.6.6 0 0 0-.078-.09 1.04 1.04 0 0 0-.089-.084.64.64 0 0 0 .077.084zm-9.347.479l.116.11a1.18 1.18 0 0 0-.103-.11l-.117-.111a1.13 1.13 0 0 0 .104.111zm-8.085.01l-.038.042.042-.038c.015-.013.029-.027.042-.042 0-.011-.01 0-.046.038zm-.127.137l-.045.049.049-.044c.045-.042.054-.053.044-.053-.017.015-.033.031-.048.049zm18.046.225c.001.016.005.031.011.046s.011.019.011.006-.004-.031-.011-.046-.011-.019-.011-.006zm.054.269c0 .029 0 .039.005.022s.004-.035 0-.052-.005 0-.005.03zm.014.221c0 .072 0 .099.004.061.003-.043.003-.087 0-.13 0-.033-.004 0-.004.069zm-.012.217c0 .029 0 .039.006.022s.003-.035 0-.052c0-.012-.006 0-.006.03zm-18.955 1.047c0 .025 0 .035.007.022s.002-.03 0-.045-.007 0-.007.022zm18.47.01l-.045.048.049-.045a.48.48 0 0 0 .048-.048c0-.01-.01 0-.052.045zm-8.399.09c0 .05 0 .068.005.041a.45.45 0 0 0 0-.09c0-.023-.005 0-.005.049m-10.083.013c0 .036 0 .049.006.029s.003-.043 0-.065c0-.016-.006 0-.006.036zm18.353.026a.26.26 0 0 0-.051.058c.023-.017.044-.037.063-.058s.037-.037.052-.058a.38.38 0 0 0-.064.058zm-18.363.629v.282-.572c0-.155 0-.024 0 .29zm7.571-.137l-2.523.006h2.52l2.527-.01c-.006-.008-1.14-.004-2.527 0m2.659 0a315.04 315.04 0 0 0 3.462.006h3.454l-3.463-.006h-3.453zm7.055-.007c.015.003.031.003.046 0s0-.006-.022-.006-.036 0-.024.006zm-.124.234a.52.52 0 0 0 .09 0c.027 0 .008-.005-.042-.005s-.072 0-.05.005m1.265.539c.054.057.066.067.066.058-.019-.022-.039-.043-.061-.062l-.062-.058.057.062zm-8.334.042c0 .05 0 .069.006.042s.002-.06 0-.09c0-.023-.006 0-.006.049m-10.083-.02c0 .032 0 .046.007.03s.002-.039 0-.058-.007 0-.007.029zm9.99.614c-.002.015-.005.031-.009.046-.007.022-.007.022.007 0 .008-.014.011-.03.009-.046s-.006-.02-.007 0zm8.924.219c.001.016.005.031.012.046s.01.019.01.006-.004-.031-.01-.046-.012-.018-.012-.006zm-18.685.211c.004.015.012.03.021.042.007.007 0-.006 0-.029-.016-.048-.031-.058-.018-.013m18.742.062c0 .025 0 .036.007.023s.003-.031 0-.046-.007 0-.007.022zm.015.215c0 .072 0 .1.005.062.003-.043.003-.087 0-.13 0-.034-.005 0-.005.068zm-.014.221c0 .029 0 .04.006.023s.003-.035 0-.052-.006 0-.006.029zm-9.782.583l-.052.056.056-.051c.02-.017.038-.036.055-.056 0-.01-.011 0-.059.051zm-8.182.114l.136.13c.003 0-.052-.058-.123-.13l-.136-.13a1.35 1.35 0 0 0 .123.13zm7.955.111a.28.28 0 0 0-.051.058c.023-.017.044-.037.063-.058s.037-.037.052-.058c-.024.017-.045.037-.064.058zm-7.792.036a.3.3 0 0 0 .042.042l.042.039-.038-.042c-.036-.04-.046-.049-.046-.039zm17.347.18l-.039.042.042-.039c.04-.035.049-.046.039-.046-.016.013-.03.027-.042.042zm-.18.18l-.039.042.042-.039c.04-.036.049-.046.039-.046-.015.013-.03.027-.042.042zm-11.07.438c-.035.009-.036.01-.007.011.02 0 .04-.004.059-.011.032-.014 0-.014-.052 0zm2.958.03c.005.005 1.558.008 3.45.006h3.44l-3.45-.007h-3.44m-7.118.019c.02.003.039.003.059 0s0-.005-.03-.005-.045 0-.029.005zm3.838 0c.019.003.039.003.059 0s-.001-.005-.03-.005-.045 0-.029.005zm-2.804.014h1.815c.499 0 .09 0-.907 0h-.908z" fill="#65a3bd"/></g></g><g fill-rule="evenodd"><path d="M46.2 4.497h-21c-.6 0-1.2.6-1.2 1.201v12.006c0 1.2.6 1.801 1.8 1.801h20.4c1.2 0 1.8-.6 1.8-1.801V6.297c0-1.201-.6-1.801-1.8-1.801z" fill="#f4f4f4"/><path d="M39.727 12.271h.009.018.018.018.018.018.018.018.018.018.018.018.018.018.018.018.018.018.018.018.018.018.018.018.018.018.018.018.018.018.018.018.018.018.018.018.018.018.018.018.018.018.018.018.018.018.018.018.018.018.018.018.018.018.018.018.018.018.018.018.015.003l.036.002.036.003.036.005.018.004.036.01.036.013.036.017.018.01.018.011.018.012.018.013.018.014.018.016.018.017.018.019.018.022.018.025.018.028.018.034.018.042a.5.5 0 0 1 .018.061.52.52 0 0 1 .013.114.52.52 0 0 1-.013.115.5.5 0 0 1-.018.061l-.018.043-.018.034-.018.029-.018.025-.018.022-.018.019-.018.017-.018.016-.018.014-.018.013-.018.012-.018.011-.018.01-.036.016-.036.013-.036.01-.007.002-.029.005-.036.004-.036.003-.028.001h-.008-.018-.018-.018-.018-.018-.018-.018-.018-.018-.018-.018-.018-.018-.018-.018-.018-.018-.018-.018-.018-.018-.018-.018-.018-.018-.018-.018-.018-.018-.018-.018-.018-.018-.018-.018-.018-.018-.018-.018-.018-.018-.018-.018-.018-.018-.018-.018-.018-.018-.018-.018-.018-.018-.018-.018-.018-.018-.018-.018-.009v-.983zm1.449-1.113c.007.033.011.068.011.105s-.004.072-.011.105c-.005.021-.011.041-.018.061-.005.014-.011.028-.018.041l-.018.033-.018.027-.018.023-.018.02-.018.018-.018.016-.018.014-.018.013-.018.012-.018.011-.018.009-.036.016-.036.012-.036.009-.022.004-.032.004-.036.003-.036.001h-.003-.015-.018-.018-.018-.018-.018-.018-.018-.018-.018-.018-.018-.018-.018-.018-.018-.018-.018-.018-.018-.018-.018-.018-.018-.018-.018-.018-.018-.018-.018-.018-.018-.018-.018-.018-.018-.018-.018-.018-.018-.018-.018-.018-.018-.018-.018-.018-.018-.018-.018-.018-.018-.018-.018-.009v-.907h.009.018.018.018.018.018.018.018.018.018.018.018.018.018.018.018.018.018.018.018.018.018.018.018.018.018.018.018.018.018.018.018.018.018.018.018.018.018.018.018.018.018.018.018.018.018.018.018.018.018.018.018.018.018.018.008.01l.036.002.036.004.018.002.036.008.036.011.036.014.036.018.018.011.018.012.018.013.018.014.018.016.018.018.018.02.018.023.018.027.018.032c.007.013.013.027.018.041.007.02.013.04.018.061zm2.232-4.703h.007v9.316l-.007.165-.018.142-.018.094-.018.075-.018.063-.018.057-.018.051-.018.047-.018.043-.018.04-.018.038-.018.036-.018.034-.018.032-.018.031-.018.03-.018.029-.018.027-.018.026-.018.026-.018.025-.018.024-.018.023-.018.022-.018.022-.018.021-.018.02-.018.02-.018.019-.018.019-.018.018-.018.017-.018.017-.018.017-.018.016-.018.016-.018.015-.018.015-.018.015-.018.015-.018.014-.018.014-.018.013-.018.013-.018.013-.018.012-.018.012-.018.012-.018.011-.018.011-.018.011-.018.011-.018.01-.018.01-.018.01-.018.01-.018.009-.018.009-.018.009-.036.017-.018.008-.036.016-.036.015-.036.014-.018.007-.036.013-.036.012-.036.011-.036.01-.036.009-.018.004-.018.004-.036.008-.018.004-.018.003-.036.006-.018.003-.018.003-.018.002-.036.005-.036.004-.036.003-.036.002-.036.002-.018.001h-.018-.036-.004-.014-.018-.018-.018-.018-.018-.018-.018-.018-.018-.018-.018-.018-.018-.018-.018-.018-.018-.018-.018-.018-.018-.018-.018-.018-.018-.018-.018-.018-.018-.018-.018-.018-.018-.018-.018-.018-.018-.018-.018-.018-.018-.018-.018-.018-.018-.018-.018-.018-.018-.018-.018-.018-.018-.018-.018-.018-.018-.018-.018-.018-.018-.018-.018-.018-.018-.018-.018-.018-.018-.018-.018-.018-.018-.018-.018-.018-.018-.018-.018-.018-.018-.018-.018-.018-.018-.018-.018-.018-.018-.018-.018-.018-.018-.018-.018-.018-.018-.018-.018-.018-.018-.018-.018-.018-.018-.018-.018-.018-.018-.018-.018-.018-.018-.018-.018-.018-.018-.018-.018-.018-.018-.018-.018-.018-.018-.018-.018-.018-.018-.018-.018-.018-.018-.018-.018-.018-.018-.018-.018-.018-.018-.018-.018-.018-.018-.018-.018-.018-.018-.039v-3.798h.039.018.018.018.018.018.018.018.018.018.018.018.018.018.018.018.018.018.018.018.018.018.018.018.018.018.018.018.018.018.018.018.018.018.018.018.018.018.018.018.018.018.018.018.018.018.018.018.018.018.018.018.018.018.018.018.018.018.018.018.018.018.018.018.018.018.018.018.018.018.018.018.018.018.018.018.018.018.018.018.018.018.018.018.018.018.018.018.018.018.018.018.018.018.018.018.018.018.018.018.018.018.018.018.018.018.018.018.018.018.018.018.018.018.018.018.018.018.018.018.018.018.018.018.018.018.018.018.018.018.018.018.018.018.018.018.018.018.018.018.018.018.018.018.018.018.018.018.018.018.018.018.018.018.018.018.018.018.018.01.008.018.018l.036-.001.018-.001.018-.001.018-.001.018-.001.018-.002.036-.004.018-.002.036-.005.036-.006.018-.003.036-.007.018-.004.036-.008.036-.009.036-.01.018-.006.036-.012.036-.013.036-.014.036-.016.036-.017.018-.009.018-.01.018-.01.018-.01.018-.011.018-.011.018-.012.018-.013.018-.013.018-.014.018-.014.018-.015.018-.016.018-.017.018-.018.018-.019.018-.02.018-.021.018-.022.018-.024.018-.027.018-.029.018-.032.018-.035.018-.041.018-.048.018-.061a.84.84 0 0 0 .018-.094.9.9 0 0 0 .008-.12c0-.04-.003-.079-.008-.117a.78.78 0 0 0-.018-.091l-.018-.059-.018-.047-.018-.039-.018-.034-.018-.031-.018-.028-.018-.026-.018-.023-.018-.022-.018-.02-.018-.019-.018-.018-.018-.017-.018-.016-.018-.015-.018-.014-.018-.014-.018-.013-.018-.013-.018-.012-.018-.011-.018-.011-.018-.011-.018-.01-.018-.01-.018-.009-.018-.009-.036-.017-.036-.015-.036-.014-.036-.013-.036-.012-.036-.011-.036-.01-.036-.009-.036-.008-.036-.007-.018-.003-.036-.006-.036-.005-.018-.002-.018-.002-.018-.002-.018-.002-.018-.002-.017-.001v-.022l.017-.003.018-.003.036-.007.036-.008.036-.009.036-.01.036-.011.036-.012.036-.013.036-.015.036-.016.018-.009.018-.009.018-.01.018-.01.018-.011.018-.011.018-.012.018-.012.018-.013.018-.014.018-.014.018-.015.018-.016.018-.017.018-.018.018-.02.018-.021.018-.022.018-.024.018-.026.018-.029.018-.032.018-.036.018-.041.018-.049.018-.064c.008-.035.014-.07.018-.107l.005-.087a.92.92 0 0 0-.005-.09.82.82 0 0 0-.018-.109l-.018-.064-.018-.049-.018-.041-.018-.035-.018-.031-.018-.028-.018-.025-.018-.023-.018-.022-.018-.02-.018-.019-.018-.018-.018-.017-.018-.016-.018-.015-.018-.014-.018-.013-.018-.013-.018-.012-.018-.012-.018-.011-.018-.01-.018-.01-.018-.009-.018-.009-.036-.017-.036-.015-.036-.014-.036-.013-.036-.011-.036-.01-.036-.009-.036-.008-.018-.004-.036-.007-.018-.003-.036-.006-.018-.002-.018-.002-.018-.002-.018-.002-.018-.002-.018-.002-.018-.001-.018-.001-.018-.001h-.007l-.011-.001-.018-.001-.018-.001-.018-.001-.018-.001-.018-.001h-.018l-.018-.001h-.018-.018-.01-.008-.018-.018-.018-.018-.018-.018-.018-.018-.018-.018-.018-.018-.018-.018-.018-.018-.018-.018-.018-.018-.018-.018-.018-.018-.018-.018-.018-.018-.018-.018-.018-.018-.018-.018-.018-.018-.018-.018-.018-.018-.018-.018-.018-.018-.018-.018-.018-.018-.018-.018-.018-.018-.018-.018-.018-.018-.018-.018-.018-.018-.018-.018-.018-.018-.018-.018-.018-.018-.018-.018-.018-.018-.018-.018-.018-.018-.018-.018-.018-.018-.018-.018-.018-.018-.018-.018-.018-.018-.018-.018-.018-.018-.018-.018-.018-.018-.018-.018-.018-.018-.018-.018-.018-.018-.018-.018-.018-.018-.018-.018-.018-.018-.018-.018-.018-.018-.018-.018-.018-.018-.018-.018-.018-.018-.018-.018-.018-.018-.018-.018-.018-.018-.018-.018-.018-.018-.018-.018-.018-.018-.018-.018-.018-.018-.039V8.319a1.87 1.87 0 0 1 .039-.38l.018-.078.018-.066.018-.058.018-.052.018-.048.018-.044.018-.041.018-.039.018-.036.018-.034.018-.033.018-.031.018-.03.018-.029.018-.028.018-.027.018-.026.018-.025.018-.024.018-.023.018-.022.018-.022.018-.021.018-.02.018-.02.018-.019.018-.019.018-.018.018-.018.018-.018.018-.017.018-.017.018-.016.018-.016.018-.015.018-.015.018-.014.018-.014.018-.014.018-.013.018-.013.018-.013.018-.012.018-.012.018-.012.018-.012.018-.011.018-.011.018-.011.018-.011.018-.01.018-.01.018-.01.018-.009.018-.009.018-.009.018-.009.036-.017.036-.016.036-.015.018-.007.018-.007.036-.013.036-.012.018-.006.036-.011.036-.01.036-.01.036-.009.036-.008.018-.004.036-.007.036-.006.036-.005.036-.005.018-.002.036-.004.018-.002.018-.001.036-.002.036-.001h.036.023.014.018.018.018.018.018.018.018.018.018.018.018.018.018.018.018.018.018.018.018.018.018.018.018.018.018.018.018.018.018.018.018.018.018.018.018.018.018.018.018.018.018.018.018.018.018.018.018.018.018.018.018.018.018.018.018.018.018.018.018.018.018.018.018.018.018.018.018.018.018.018.018.018.018.018.018.018.018.018.018.018.018.018.018.018.018.018.018.018.018.018.018.018.018.018.018.018.018.018.018.018.018.018.018.018.018.018.018.018.018.018.018.018.018.018.018.018.018.018.018.018.018.018.018.018.018.018.018.018.018.018.018.018.018.018.018.018.018.018.018.018.018.018.018.018.018.018.018.018.018.018.018z" fill="#479951"/><path d="M28.56 12.938l-.039-.018V8.318c0-.13.013-.256.039-.379l.018-.078.018-.066.018-.058.018-.052.018-.048.018-.044.018-.041.018-.038.018-.036.018-.034.018-.033.018-.031.018-.03.018-.029.018-.028.018-.027.018-.026.018-.025.018-.024.018-.023.018-.022.018-.022.018-.021.018-.02.018-.02.018-.019.018-.019.018-.018.018-.018.018-.018.018-.017.018-.017.018-.016.018-.016.018-.015.018-.015.018-.014.018-.014.018-.014.018-.013.018-.013.018-.013.018-.012.018-.012.018-.012.018-.012.018-.011.018-.011.018-.011.018-.011.018-.01.018-.01.018-.01.018-.009.018-.009.018-.009.018-.009.036-.017.036-.016.036-.015.018-.007.018-.007.036-.013.036-.012.018-.006.036-.011.036-.01.018-.005.036-.009.036-.008.018-.004.036-.007.036-.007.018-.003.036-.005.036-.005.018-.002.036-.004.018-.002.036-.003.036-.002.018-.001.036-.001h.026.01.018.018.018.018.018.018.018.018.018.018.018.018.018.018.018.018.018.018.018.018.018.018.018.018.018.018.018.018.018.018.018.018.018.018.018.018.018.018.018.018.018.018.018.018.018.018.018.018.018.018.018.018.018.018.018.018.018.018.018.018.018.018.018.018.018.018.018.018.018.018.018.018.018.018.018.018.018.018.018.018.018.018.018.018.018.018.018.018.018.018.018.018.018.018.018.018.018.018.018.018.018.018.018.018.018.018.018.018.018.018.018.018.018.018.018.018.018.018.018.018.018.018.018.018.018.018.018.018.018.018.018.018.018.018.018.018.018.018.018.018.018.018.018.018.018.018.018.018.018.018.018.015v9.316a1.87 1.87 0 0 1-.015.239l-.018.112-.018.084-.018.069-.018.06-.018.053-.018.049-.018.045-.018.042-.018.039-.018.037-.018.035-.018.033-.018.032-.018.03-.018.029-.018.028-.018.027-.018.026-.018.025-.018.024-.018.023-.018.023-.018.022-.018.021-.018.021-.018.02-.018.019-.018.019-.018.018-.018.018-.018.018-.018.017-.018.017-.018.016-.018.016-.018.015-.018.015-.018.015-.018.014-.018.014-.018.014-.018.013-.018.013-.018.013-.018.012-.018.012-.018.012-.018.011-.018.011-.018.011-.018.011-.018.01-.018.01-.018.01-.018.009-.018.009-.018.009-.018.009-.036.017-.036.016-.018.008-.036.015-.036.014-.036.013-.018.006-.036.012-.036.011-.018.005-.036.01-.036.009-.018.004-.018.004-.036.007-.036.007-.036.006-.036.005-.036.004-.036.004-.018.002-.036.003-.018.001-.018.001-.036.001-.036.001h-.018-.018-.018-.018-.018-.018-.018-.018-.018-.018-.018-.018-.018-.018-.018-.018-.018-.018-.018-.018-.018-.018-.018-.018-.018-.018-.018-.018-.018-.018-.018-.018-.018-.018-.018-.018-.018-.018-.018-.018-.018-.018-.018-.018-.018-.018-.018-.018-.018-.018-.018-.018-.018-.018-.018-.018-.018-.018-.018-.018-.018-.018-.018-.018-.018-.018-.018-.018-.018-.018-.018-.018-.018-.018-.018-.018-.018-.018-.018-.018-.018-.018-.018-.018-.018-.018-.018-.018-.018-.018-.018-.018-.018-.018-.018-.018-.018-.018-.018-.018-.018-.018-.018-.018-.018-.018-.018-.018-.018-.018-.018-.018-.018-.018-.018-.018-.018-.018-.018-.018-.018-.018-.018-.018-.018-.018-.018-.018-.018-.018-.018-.018-.018-.018-.018-.018-.018-.018-.018-.018-.018-.018-.018-.018-.018-.018-.018-.018-.018-.018-.018-.039v-3.926l.039.01.018.005.018.004.018.004.018.004.018.004.018.004.018.004.018.004.018.004.018.004.018.004.018.004.018.004.018.004.018.004.018.004.018.004.018.003.018.004.018.003.018.003.018.003.018.003.018.003.018.003.018.003.018.003.018.003.018.003.018.003.018.003.018.003.018.003.018.003.018.003.018.003.018.003.018.003.018.003.018.003.018.003.018.003.018.002.018.002.018.002.018.002.018.002.018.002.018.002.018.002.018.002.018.002.018.002.018.002.018.002.018.002.018.002.018.002.018.002.018.002.018.002.018.002.018.002.018.002.018.002.018.002.018.002.018.002.018.002.018.001.018.001.018.001.018.001.018.001.018.001.018.001.018.001.018.001.018.001.018.001.018.001.018.001.018.001.018.001.018.001.018.001h.018l.018.001.018.001h.018l.018.001h.018.018.018.018.018.018.018.018.018.018.018.018.018.007.011.018.018.018.018.018.018.018.018.018l.018-.001h.018l.018-.001.018-.001h.018l.018-.001.018-.001.018-.001.018-.001.018-.001.018-.001.018-.001.018-.001.018-.001.018-.001.018-.001.018-.001.018-.002.018-.002.018-.002.018-.002.018-.002.018-.002.018-.002.018-.002.018-.002.018-.002.018-.002.018-.002.018-.002.018-.002.018-.002.036-.005.018-.003.018-.003.036-.006.036-.006.018-.003.018-.003.018-.003.036-.007.018-.004.036-.008.036-.008.018-.004.036-.009.018-.005.036-.01.018-.005.036-.011.018-.006.036-.012.018-.006.036-.013.018-.006.036-.014.036-.014.018-.008.036-.016.018-.008.018-.008.036-.017.018-.009.018-.009.018-.01.018-.01.018-.01.018-.011.018-.011.018-.011.018-.011.018-.012.018-.012.018-.013.018-.013.018-.014.018-.014.018-.014.018-.015.018-.015.018-.016.018-.017.018-.018.018-.018.018-.019.018-.02.018-.021.018-.022.018-.023.018-.024.018-.025.018-.027.018-.029.018-.031.018-.033.018-.036.018-.039.018-.043.018-.048.018-.056.018-.067.018-.084.018-.129c.006-.061.009-.122.009-.185v-2.162h-.009-.018-.018-.018-.018-.018-.018-.018-.018-.018-.018-.018-.018-.018-.018-.018-.018-.018-.018-.018-.018-.018-.018-.018-.018-.018-.018-.018-.018-.018-.018-.018-.018-.018-.018-.018-.018-.018-.018-.018-.018-.018-.018-.018-.018-.018-.018-.018-.018-.018-.018-.018-.018-.018-.018-.018-.018-.018-.018-.018-.018-.018-.018-.018-.018-.018-.018-.018-.018-.018-.018-.018-.018-.018-.018-.018-.018-.018-.018-.018-.018-.018-.018-.018-.018-.018-.018-.018-.018-.014v2.162l-.004.1a1.04 1.04 0 0 1-.018.122l-.018.072-.018.055-.018.046-.018.039-.018.035-.018.031-.018.028-.018.026-.018.024-.018.022-.018.021-.018.019-.018.018-.018.017-.018.016-.018.015-.018.014-.018.013-.018.013-.018.012-.018.011-.018.011-.018.01-.018.01-.018.009-.036.017-.036.015-.036.013-.036.012-.036.011-.036.009-.036.008-.036.007-.036.006-.036.005-.018.002-.036.003-.036.002-.036.002h-.018-.025-.011-.018-.018-.018l-.018-.001h-.018l-.018-.001-.018-.001-.018-.001-.018-.001-.018-.001-.018-.001-.018-.001-.018-.002-.018-.002-.018-.002-.018-.002-.018-.002-.018-.002-.018-.002-.018-.002-.018-.002-.018-.002-.018-.003-.018-.003-.018-.003-.018-.003-.018-.003-.018-.003-.018-.003-.018-.003-.018-.003-.018-.004-.018-.004-.018-.004-.018-.004-.018-.004-.018-.004-.018-.004-.018-.004-.018-.004-.018-.005-.018-.005-.018-.005-.018-.005-.018-.005-.018-.005-.018-.005-.018-.005-.018-.005-.018-.005-.018-.005-.018-.006-.018-.006-.018-.006-.018-.006-.018-.006-.018-.006-.018-.006-.018-.006-.018-.006-.018-.006-.018-.006-.018-.006-.018-.007-.018-.007-.018-.007-.018-.007-.018-.007-.018-.007-.018-.007-.018-.007-.018-.007-.018-.007-.018-.007-.018-.008-.018-.008-.018-.008-.018-.008-.018-.008-.018-.008-.018-.008-.018-.008-.018-.008-.018-.008-.018-.008-.018-.008-.018-.008h0z" fill="#265797"/><path d="M33.782 10.726l-.039.032V8.319c0-.13.013-.256.039-.379l.018-.078.018-.066.018-.058.018-.052.018-.048.018-.044.018-.041.018-.039.018-.036.018-.034.018-.033.018-.031.018-.03.018-.029.018-.028.018-.027.018-.026.018-.025.018-.024.018-.023.018-.022.018-.022.018-.021.018-.02.018-.02.018-.019.018-.019.018-.018.018-.018.018-.018.018-.017.018-.017.018-.016.018-.016.018-.015.018-.015.018-.014.018-.014.018-.014.018-.013.018-.013.018-.013.018-.012.018-.012.018-.012.018-.012.018-.011.018-.011.018-.011.018-.011.018-.01.018-.01.018-.01.018-.009.018-.009.018-.009.018-.009.036-.017.036-.016.036-.015.036-.014.036-.013.036-.012.018-.006.036-.011.036-.01.018-.005.036-.009.036-.008.018-.004.036-.007.036-.007.018-.003.036-.005.036-.005.018-.002.036-.004.018-.002.036-.003.036-.002.018-.001h.036.026.01.018.018.018.018.018.018.018.018.018.018.018.018.018.018.018.018.018.018.018.018.018.018.018.018.018.018.018.018.018.018.018.018.018.018.018.018.018.018.018.018.018.018.018.018.018.018.018.018.018.018.018.018.018.018.018.018.018.018.018.018.018.018.018.018.018.018.018.018.018.018.018.018.018.018.018.018.018.018.018.018.018.018.018.018.018.018.018.018.018.018.018.018.018.018.018.018.018.018.018.018.018.018.018.018.018.018.018.018.018.018.018.018.018.018.018.018.018.018.018.018.018.018.018.018.018.018.018.018.018.018.018.018.018.018.018.018.018.018.018.018.018.018.018.018.018.018.018.018.018.018.018.015v9.316c0 .081-.005.161-.015.239l-.018.112-.018.084-.018.069-.018.06-.018.053-.018.049-.018.045-.018.042-.018.039-.018.037-.018.035-.018.033-.018.032-.018.03-.018.029-.018.028-.018.027-.018.026-.018.025-.018.024-.018.023-.018.023-.018.022-.018.021-.018.021-.018.02-.018.019-.018.019-.018.018-.018.018-.018.018-.018.017-.018.017-.018.016-.018.016-.018.015-.018.015-.018.015-.018.014-.018.014-.018.014-.018.013-.018.013-.018.012-.018.012-.018.012-.018.012-.018.011-.018.011-.018.011-.018.011-.018.01-.018.01-.018.01-.018.009-.018.009-.036.018-.036.017-.036.016-.018.008-.018.007-.036.014-.036.013-.018.006-.018.006-.036.012-.036.011-.018.005-.036.01-.036.009-.018.004-.018.004-.036.007-.018.003-.018.003-.036.006-.036.005-.036.004-.036.004-.018.002-.036.003-.018.001-.018.001-.036.001-.036.001h-.018-.018-.018-.018-.018-.018-.018-.018-.018-.018-.018-.018-.018-.018-.018-.018-.018-.018-.018-.018-.018-.018-.018-.018-.018-.018-.018-.018-.018-.018-.018-.018-.018-.018-.018-.018-.018-.018-.018-.018-.018-.018-.018-.018-.018-.018-.018-.018-.018-.018-.018-.018-.018-.018-.018-.018-.018-.018-.018-.018-.018-.018-.018-.018-.018-.018-.018-.018-.018-.018-.018-.018-.018-.018-.018-.018-.018-.018-.018-.018-.018-.018-.018-.018-.018-.018-.018-.018-.018-.018-.018-.018-.018-.018-.018-.018-.018-.018-.018-.018-.018-.018-.018-.018-.018-.018-.018-.018-.018-.018-.018-.018-.018-.018-.018-.018-.018-.018-.018-.018-.018-.018-.018-.018-.018-.018-.018-.018-.018-.018-.018-.018-.018-.018-.018-.018-.018-.018-.018-.018-.018-.018-.018-.018-.018-.018-.018-.018-.018-.018-.018-.039v-4.302l.039.032.018.014.018.014.018.014.018.013.018.013.018.013.018.012.018.012.018.012.018.011.018.011.018.011.018.011.018.01.018.01.018.01.018.01.018.01.018.009.018.009.018.009.018.009.036.017.018.008.018.008.018.008.018.008.018.008.018.007.018.007.018.007.018.007.036.013.036.013.018.006.018.006.036.012.018.006.018.005.018.005.018.005.018.005.018.005.018.005.018.005.018.005.018.005.018.005.018.005.018.004.018.004.018.004.018.004.018.004.018.004.018.004.018.004.018.004.018.004.018.004.018.003.018.003.018.003.018.003.018.003.018.003.018.003.018.003.018.003.018.003.018.003.018.003.018.003.018.002.018.002.018.002.018.002.018.002.018.002.018.002.018.002.018.002.018.002.018.002.018.002.018.002.018.002.018.002.018.002.018.001.018.001.018.001.018.001.018.001.018.001.018.001.018.001.018.001h.018l.018.001.018.001.018.001.018.001h.018l.018.001h.018.018l.018.001h.018l.018.001h.018.018.018.018.018.018.018.018.018.018.018.018.018.018.018.018.018.018.018.018.018l.018-.001h.018l.018-.001h.018l.018-.001.018-.001h.018l.018-.001h.009.009l.018-.001.018-.001.018-.001.018-.001.018-.001.018-.001.018-.001.018-.001.018-.001.018-.001.018-.002.018-.002.018-.002.018-.002.018-.002.018-.002.018-.002.018-.002.018-.002.018-.002.018-.002.018-.002.018-.002.018-.002.018-.002.018-.002.018-.002.018-.002.018-.002.018-.002.018-.002.018-.003.018-.002.018-.002.018-.003.018-.003.018-.003.018-.003.018-.003.018-.003.018-.003.018-.003.018-.003.018-.003.018-.003.018-.003.018-.003.018-.003.018-.003.018-.003.018-.003.018-.003.018-.003.018-.003.018-.003.018-.003.018-.003.018-.003.018-.003.018-.003.018-.004.018-.003.018-.004.018-.004.018-.004.018-.004.018-.004.018-.004.018-.004.018-.004.018-.004.018-.004.018-.004.018-.004.018-.004.018-.004.018-.004.018-.004.018-.004.018-.004.018-.004v-.788l-.018.009-.018.009-.018.009-.018.009-.018.009-.018.009-.018.008-.018.008-.018.008-.018.008-.018.008-.018.008-.018.008-.018.008-.018.008-.018.008-.018.008-.018.008-.018.007-.018.007-.018.007-.018.007-.018.007-.018.007-.018.007-.018.007-.018.007-.018.006-.018.006-.018.006-.018.006-.018.006-.018.006-.018.006-.018.006-.018.006-.018.005-.018.005-.018.005-.018.005-.018.005-.018.005-.018.005-.018.005-.018.005-.018.005-.018.004-.018.004-.018.004-.018.004-.018.004-.018.004-.018.004-.018.004-.018.004-.018.004-.018.003-.018.003-.018.003-.018.003-.018.003-.018.003-.018.003-.018.003-.018.003-.018.003-.018.002-.018.002-.018.002-.018.002-.018.002-.018.002-.018.002-.018.002-.018.002-.018.002-.018.002-.018.002-.011.001-.007.001-.018.001-.018.001-.018.001-.018.001-.018.001h-.018l-.018.001h-.018-.018-.018-.036-.018-.018-.018l-.036-.001-.018-.001-.018-.001-.018-.001-.018-.002-.036-.003-.018-.002-.018-.002-.018-.002-.018-.002-.018-.002-.036-.006-.036-.006-.036-.007-.036-.008-.018-.004-.036-.009-.036-.01-.036-.011-.036-.012-.036-.013-.036-.014-.036-.016-.036-.017-.018-.009-.018-.009-.018-.01-.018-.01-.018-.01-.018-.011-.018-.011-.018-.012-.018-.012-.018-.013-.018-.013-.018-.014-.018-.014-.018-.015-.018-.016-.018-.017-.018-.017-.018-.018-.018-.019-.018-.02-.018-.021-.018-.022-.018-.023-.018-.025-.018-.026-.018-.028-.018-.03-.018-.032-.018-.035-.018-.038-.018-.042-.018-.048-.018-.055-.018-.066-.018-.085-.018-.132-.007-.161.007-.161.018-.132.018-.085.018-.066.018-.055.018-.048.018-.042.018-.038.018-.035.018-.032.018-.03.018-.028.018-.026.018-.025.018-.023.018-.022.018-.021.018-.02.018-.019.018-.018.018-.017.018-.017.018-.016.018-.015.018-.014.018-.014.018-.013.018-.013.018-.012.018-.011.018-.011.018-.011.018-.01.018-.01.018-.009.018-.009.018-.009.036-.017.036-.016.036-.014.036-.013.036-.012.036-.011.018-.005.036-.01.036-.009.036-.008.036-.007.036-.006.036-.006.018-.003.018-.002.018-.002.018-.002.018-.002.036-.003.018-.001.018-.001.018-.001.018-.001.036-.002h.018.018.018.018.036.018.018.018l.018.001h.018l.018.001.018.001.018.001.018.001h.007l.011.001.018.001.018.002.018.002.018.002.018.002.018.002.018.002.018.002.018.002.018.002.018.002.018.003.018.003.018.003.018.003.018.003.018.003.018.003.018.003.018.003.018.003.018.003.018.004.018.004.018.004.018.004.018.004.018.004.018.004.018.004.018.004.018.005.018.005.018.005.018.005.018.005.018.005.018.005.018.005.018.005.018.005.018.005.018.006.018.006.018.006.018.006.018.006.018.006.018.006.018.006.018.007.018.006.018.007.018.007.018.007.018.007.018.007.018.007.018.007.018.007.018.008.018.008.018.008.018.008.018.008.018.008.018.008.018.008.018.008.018.008.018.008.018.009.018.009.018.009.018.009.018.009.018.009.018.009v-.789l-.018-.004-.018-.004-.018-.004-.018-.004-.018-.004-.018-.004-.018-.004-.018-.004-.018-.004-.018-.004-.018-.004-.018-.004-.018-.004-.018-.004-.018-.004-.018-.004-.018-.004-.018-.004-.018-.004-.018-.003-.018-.004-.018-.003-.018-.003-.018-.003-.018-.003-.018-.003-.018-.003-.018-.003-.018-.003-.018-.003-.018-.003-.018-.003-.018-.003-.018-.003-.018-.003-.018-.003-.018-.003-.018-.003-.018-.003-.018-.003-.018-.003-.018-.003-.018-.003-.018-.003-.018-.003-.018-.003-.018-.003-.018-.002-.018-.002-.018-.003-.018-.002-.018-.002-.018-.002-.018-.002-.018-.002-.018-.002-.018-.002-.018-.002-.018-.002-.018-.002-.018-.002-.018-.002-.018-.002-.018-.002-.018-.002-.018-.002-.018-.002-.018-.002-.018-.002-.018-.002-.018-.001-.018-.001-.018-.001-.018-.001-.018-.001-.018-.001-.018-.001-.018-.001-.018-.001h-.018l-.018-.001h-.009-.009l-.018-.001-.018-.001h-.018l-.018-.001-.018-.001h-.018l-.018-.001h-.018l-.018-.001h-.018-.018-.018-.018-.018-.018-.018-.018-.018-.018-.018-.018-.018-.018-.018-.018-.018-.018-.018-.018-.018-.018-.018l-.018.001-.018.001h-.018l-.018.001-.018.001h-.018l-.018.001-.018.001-.018.001-.018.001-.018.001-.018.001-.018.001-.018.001-.018.001-.018.001-.018.001-.018.001-.018.002-.018.002-.018.002-.018.002-.018.002-.018.002-.018.002-.018.002-.018.002-.018.002-.018.002-.018.002-.018.002-.018.002-.018.002-.018.002-.018.003-.018.003-.018.003-.018.003-.018.003-.018.003-.018.003-.018.003-.018.003-.018.003-.018.003-.018.003-.018.003-.018.004-.018.003-.018.004-.018.004-.018.004-.018.004-.018.004-.018.004-.018.004-.018.004-.018.004-.018.005-.018.005-.018.005-.018.005-.018.005-.018.005-.018.005-.018.005-.018.005-.018.005-.018.005-.018.006-.036.012-.036.012-.018.006-.036.013-.018.007-.036.014-.018.007-.018.007-.018.008-.018.008-.018.008-.018.008-.018.008-.018.008-.036.017-.018.009-.018.009-.018.009-.018.01-.018.01-.018.01-.018.01-.018.01-.018.011-.018.011-.018.011-.018.011-.018.012-.018.012-.018.012-.018.013-.018.013-.018.013-.018.014-.018.014-.018.014h0z" fill="#ca4638"/></g><g clip-path="url(#C)"><path fill="#fff" d="M72 0h24v24H72z"/><path d="M72 0h23.94v12.924l-1.185 1.852 1.185 1.648v7.517H72V11.757l.741-.852-.741-.815V0z" fill="#016fd0"/><g fill="#fff"><path d="M76.647 16.682v-3.759h3.98l.427.557.441-.557H95.94v3.499s-.378.255-.815.259h-7.999l-.481-.593v.593h-1.578V15.67s-.216.141-.681.141h-.537v.87H81.46l-.426-.569-.433.569h-3.955zM72 10.091l.897-2.092h1.552l.509 1.172V7.999h1.929l.303.847.294-.847h8.661v.426s.455-.426 1.204-.426l2.81.01.501 1.157V7.999h1.615l.444.664v-.664h1.629v3.759h-1.629l-.426-.667v.667h-2.372l-.239-.593h-.638l-.235.593H87.2c-.644 0-1.055-.417-1.055-.417v.417H83.72l-.481-.593v.593H74.22l-.238-.593h-.636l-.237.593H72v-1.666z"/></g><g fill="#016fd0"><path d="M73.215 8.462l-1.211 2.814h.788l.223-.564h1.298l.222.564h.805l-1.209-2.814h-.918zm.448.655l.396.985h-.793l.397-.985zm1.762 2.159V8.462l1.12.004.651 1.815.636-1.819h1.111v2.814h-.704V9.202l-.746 2.074h-.617l-.748-2.074v2.074h-.704zm4 0V8.462h2.296v.63h-1.585v.481h1.548v.592h-1.548v.5h1.585v.611h-2.296z"/><use xlink:href="#E"/><path d="M85.683 11.276h-.718V8.462h.718v2.814zm1.703 0h-.155c-.75 0-1.206-.591-1.206-1.396 0-.824.45-1.419 1.398-1.419h.778v.667h-.806c-.385 0-.657.3-.657.759 0 .545.311.774.759.774h.185l-.296.615zm1.531-2.814l-1.21 2.814h.788l.223-.564h1.298l.222.564h.805l-1.209-2.814h-.918zm.448.655l.396.985h-.793l.397-.985zm1.762 2.159V8.462h.895l1.142 1.768V8.462h.703v2.814h-.866L91.83 9.461v1.815h-.704zm-13.998 4.925v-2.814h2.296v.63H77.84v.481h1.548v.592H77.84v.5h1.585v.611h-2.296zm11.25 0v-2.814h2.296v.63H89.09v.481h1.54v.592h-1.54v.5h1.585v.611h-2.296zm-8.865 0l1.118-1.39-1.144-1.425h.886l.682.881.684-.881h.852l-1.129 1.407 1.12 1.407h-.886l-.662-.867-.646.867h-.874zm3.151-2.814v2.814h.722v-.889h.741c.627 0 1.102-.332 1.102-.979 0-.536-.372-.947-1.01-.947h-1.554zm.722.636h.78c.202 0 .347.124.347.324 0 .188-.144.324-.349.324h-.778v-.648zm2.148-.636v2.814h.704v-1h.296l.844 1h.86l-.926-1.037c.38-.032.772-.358.772-.864 0-.592-.465-.913-.984-.913h-1.566zm.704.63h.804c.193 0 .333.151.333.296 0 .187-.182.296-.323.296h-.815v-.592z"/><path d="M91.001 16.201v-.611h1.408c.208 0 .298-.113.298-.236 0-.118-.09-.238-.298-.238h-.636c-.553 0-.861-.337-.861-.843 0-.451.282-.886 1.104-.886h1.37l-.296.633h-1.185c-.227 0-.296.119-.296.232s.086.245.259.245h.666c.617 0 .884.35.884.808 0 .492-.298.896-.918.896h-1.499z"/><path d="M93.583 16.201v-.611h1.408c.208 0 .299-.113.299-.236 0-.118-.09-.238-.299-.238h-.636c-.553 0-.861-.337-.861-.843 0-.451.282-.886 1.104-.886h1.37l-.296.633h-1.185c-.227 0-.296.119-.296.232s.086.245.259.245h.666c.617 0 .884.35.884.808 0 .492-.298.896-.918.896h-1.5z"/></g></g><path d="M103.261 21.231v-1.236c.007-.104-.008-.208-.044-.305a.73.73 0 0 0-.424-.428.73.73 0 0 0-.305-.047c-.136-.009-.272.019-.394.081a.77.77 0 0 0-.298.27c-.067-.112-.163-.203-.277-.265s-.244-.091-.374-.086a.65.65 0 0 0-.327.07.66.66 0 0 0-.25.223v-.243h-.428v1.967h.432v-1.09c-.009-.067-.004-.136.017-.201s.054-.125.1-.175a.47.47 0 0 1 .166-.115.46.46 0 0 1 .199-.033c.285 0 .429.186.429.519v1.094h.433v-1.09a.47.47 0 0 1 .118-.374.47.47 0 0 1 .364-.149c.292 0 .432.186.432.519v1.094h.431zm2.41-.983v-.983h-.432v.239c-.073-.094-.167-.169-.274-.219a.75.75 0 0 0-.344-.069 1.03 1.03 0 0 0-1.03 1.03 1.03 1.03 0 0 0 1.03 1.03.75.75 0 0 0 .344-.069c.107-.05.201-.125.274-.219v.239h.428l.004-.979zm-1.592 0a.59.59 0 0 1 .39-.524c.109-.04.228-.047.341-.02s.215.086.295.17a.59.59 0 0 1 .154.304c.021.114.007.232-.038.339s-.122.198-.218.262a.6.6 0 0 1-.327.099.59.59 0 0 1-.44-.182.6.6 0 0 1-.128-.207.58.58 0 0 1-.033-.241h.004zm10.748-1.03c.141 0 .281.026.412.078a1.04 1.04 0 0 1 .336.218c.095.093.171.205.222.328a1.09 1.09 0 0 1 0 .824.99.99 0 0 1-.222.328c-.097.094-.211.168-.336.218-.272.106-.573.106-.845 0-.124-.05-.238-.124-.334-.218a1.01 1.01 0 0 1-.22-.328 1.1 1.1 0 0 1 0-.824 1.01 1.01 0 0 1 .22-.328c.096-.094.21-.168.334-.218a1.11 1.11 0 0 1 .429-.084l.004.006zm0 .412a.64.64 0 0 0-.245.045.58.58 0 0 0-.196.13c-.057.059-.101.129-.13.206-.063.165-.063.347 0 .511.029.077.073.147.13.206s.122.1.196.13a.67.67 0 0 0 .488 0 .59.59 0 0 0 .206-.13c.057-.059.101-.129.13-.206.063-.164.063-.346 0-.511-.029-.077-.073-.147-.13-.206a.59.59 0 0 0-.206-.13.64.64 0 0 0-.247-.058l.004.012zm-6.828.618c0-.618-.383-1.03-.933-1.03a1.03 1.03 0 0 0-1.016 1.044 1.03 1.03 0 0 0 1.045 1.016c.293.01.58-.088.805-.276l-.206-.317c-.162.131-.364.203-.572.206-.142.012-.283-.031-.393-.121s-.18-.219-.196-.361h1.46c.006-.052.006-.103.006-.161zm-1.464-.173a.51.51 0 0 1 .517-.476.48.48 0 0 1 .187.033c.06.023.115.058.161.102s.083.097.109.156a.48.48 0 0 1 .041.186l-1.015-.002zm3.267-.309c-.188-.108-.401-.166-.618-.169-.235 0-.375.087-.375.231s.148.169.334.194l.206.029c.428.062.688.243.688.589s-.33.643-.896.643a1.42 1.42 0 0 1-.851-.255l.206-.334a1.05 1.05 0 0 0 .655.206c.293 0 .449-.087.449-.239 0-.111-.111-.173-.346-.206l-.206-.029c-.441-.062-.68-.259-.68-.581 0-.392.322-.631.824-.631a1.47 1.47 0 0 1 .802.206l-.192.346zm2.06-.111h-.698v.888c0 .206.07.33.284.33a.79.79 0 0 0 .379-.111l.124.367a1.01 1.01 0 0 1-.536.152c-.507 0-.684-.272-.684-.729v-.896h-.4v-.391h.4v-.598h.433v.598h.698v.391zm1.481-.441c.104.001.208.019.305.054l-.131.412a.7.7 0 0 0-.268-.05c-.28 0-.412.181-.412.507v1.102h-.429v-1.968h.425v.239a.58.58 0 0 1 .219-.216c.092-.051.195-.076.3-.073l-.009-.008zm2.963 1.731c.027 0 .053.005.078.014s.046.024.064.041.033.039.043.062.016.05.016.076-.005.052-.016.076-.025.044-.043.062-.04.032-.064.041a.19.19 0 0 1-.078.017c-.039 0-.077-.012-.11-.033s-.059-.051-.075-.087c-.011-.024-.016-.05-.016-.076s.005-.052.016-.076.025-.044.043-.062.04-.032.064-.041.044-.014.068-.014h.01zm0 .348c.021 0 .041-.004.06-.012s.034-.019.047-.033c.018-.018.031-.039.038-.063s.008-.049.004-.073-.016-.047-.031-.067-.036-.035-.058-.045-.039-.012-.06-.012-.041.004-.06.012-.035.019-.049.033c-.026.028-.04.065-.04.103s.014.075.04.103c.014.014.031.026.05.034s.039.012.059.012v.008zm.012-.245c.02-.001.039.005.054.017.006.005.011.012.014.019s.005.016.004.024 0 .014-.003.02-.006.012-.011.017c-.012.011-.027.017-.043.019l.06.068h-.048l-.055-.068h-.019v.068h-.039v-.19l.086.006zm-.045.035v.049h.045c.008.002.017.002.025 0l.002-.028c-.01-.012-.019-.012-.027-.009l-.045-.012z" fill="#000"/><path d="M111.244 4.252h-6.489v11.663h6.489V4.252z" fill="#7673c0"/><path d="M105.167 10.085c-.001-1.123.253-2.232.744-3.243a7.41 7.41 0 0 1 2.088-2.59c-1.094-.86-2.408-1.395-3.791-1.543s-2.781.095-4.033.704-2.307 1.556-3.045 2.736S96 8.692 96 10.084s.391 2.755 1.13 3.935 1.793 2.128 3.045 2.736 2.649.852 4.033.704 2.697-.683 3.791-1.543a7.41 7.41 0 0 1-2.088-2.589 7.4 7.4 0 0 1-.744-3.242z" fill="#eb001b"/><path d="M119.291 14.679v-.231h.097v-.05h-.245v.05h.097v.239l.051-.008zm.476 0v-.288h-.074l-.087.206-.086-.206h-.077v.288h.054v-.216l.08.188h.056l.08-.187v.218l.054-.002zm.231-4.594a7.42 7.42 0 0 1-4.175 6.669 7.42 7.42 0 0 1-7.824-.839 7.42 7.42 0 0 0 2.088-2.59c.491-1.01.746-2.119.746-3.242s-.255-2.232-.746-3.242a7.42 7.42 0 0 0-2.088-2.59 7.42 7.42 0 0 1 3.792-1.544c1.384-.149 2.781.095 4.033.703A7.42 7.42 0 0 1 120 10.083l-.002.002z" fill="#00a1df"/><g clip-path="url(#D)"><path d="M143.527 21.09v.048h.045a.05.05 0 0 0 .024-.006c.008-.011.009-.015.009-.018-.004-.013-.006-.016-.009-.018s-.016-.007-.024-.006h-.045v.001zm.045-.034c.019-.001.038.004.054.016.006.005.011.012.015.019s.004.015.004.024-.001.014-.004.02-.006.012-.011.017c-.012.011-.027.017-.043.018l.06.069h-.046l-.056-.068h-.017v.068h-.039v-.182h.084-.001zm-.012.245a.14.14 0 0 0 .059-.012c.018-.008.034-.019.048-.032s.025-.03.033-.048c.015-.038.015-.081 0-.119-.008-.018-.019-.034-.033-.048s-.03-.025-.048-.033a.15.15 0 0 0-.059-.011c-.02 0-.041.004-.06.011s-.035.019-.049.033c-.021.022-.035.049-.041.079a.15.15 0 0 0 .009.089c.007.018.018.034.032.048s.031.025.049.033.04.012.06.012V21.3zm0-.347c.053 0 .104.021.141.058.018.018.033.039.043.062s.015.05.015.076-.005.052-.015.076a.2.2 0 0 1-.043.062c-.018.018-.04.032-.063.042s-.051.016-.078.016-.054-.005-.078-.016-.046-.024-.064-.042-.032-.04-.042-.064-.016-.05-.016-.076.006-.052.016-.076.024-.045.042-.062.04-.033.064-.042a.2.2 0 0 1 .079-.016l-.001.002zm-18.374-.702c0-.346.227-.631.597-.631.355 0 .594.272.594.631s-.239.631-.594.631c-.37 0-.597-.285-.597-.631zm1.594 0v-.986h-.428v.24c-.136-.178-.342-.289-.622-.289-.552 0-.985.433-.985 1.035s.433 1.035.985 1.035c.28 0 .486-.111.622-.289v.239h.428v-.986h0zm14.471 0c0-.346.227-.631.598-.631.355 0 .593.272.593.631s-.238.631-.593.631c-.371 0-.598-.285-.598-.631zm1.596 0v-1.777h-.429v1.032c-.136-.178-.342-.289-.622-.289-.552 0-.985.433-.985 1.035s.433 1.035.985 1.035c.28 0 .486-.111.622-.289v.239h.429v-.986zm-10.751-.651c.276 0 .453.173.498.478h-1.021c.045-.285.218-.478.523-.478h0zm.009-.384c-.578 0-.981.42-.981 1.035 0 .627.42 1.035 1.009 1.035.297 0 .569-.074.808-.276l-.21-.318a.94.94 0 0 1-.573.206c-.276 0-.528-.128-.589-.483h1.462l.009-.165c-.005-.614-.384-1.035-.936-1.035h.001zm5.17 1.035c0-.346.227-.631.598-.631.354 0 .593.272.593.631s-.239.631-.593.631c-.371 0-.598-.285-.598-.631h0zm1.595 0v-.985h-.428v.24c-.137-.178-.342-.289-.623-.289-.552 0-.985.433-.985 1.035s.433 1.035.985 1.035c.281 0 .486-.111.623-.289v.239h.428v-.986h0zm-4.013 0a.99.99 0 0 0 1.05 1.035c.297 0 .495-.066.708-.235l-.205-.346c-.161.116-.33.177-.516.177-.342-.004-.594-.252-.594-.631s.252-.627.594-.631a.87.87 0 0 1 .516.178l.205-.346c-.214-.169-.411-.235-.708-.235a.99.99 0 0 0-1.05 1.035zm5.521-1.035a.58.58 0 0 0-.519.289v-.239h-.425v1.971h.429v-1.105c0-.326.14-.507.42-.507.092-.001.183.016.268.05l.132-.404c-.095-.037-.219-.054-.305-.054h0zm-11.48.207c-.206-.136-.49-.206-.803-.206-.499 0-.821.239-.821.631 0 .321.24.52.68.581l.202.029c.235.033.346.095.346.206 0 .152-.156.239-.449.239s-.511-.095-.655-.206l-.201.334c.235.173.531.256.853.256.568 0 .898-.268.898-.643 0-.346-.259-.528-.688-.59l-.202-.029c-.185-.024-.334-.061-.334-.194 0-.144.14-.231.375-.231.252 0 .495.095.614.169l.186-.346h-.001zm5.526-.206a.58.58 0 0 0-.519.289v-.24h-.424v1.971h.428v-1.105c0-.326.14-.507.42-.507.092-.001.183.016.268.05l.132-.404c-.095-.037-.219-.054-.305-.054h0zm-3.655.049h-.7v-.598h-.433v.598h-.4v.392h.4v.899c0 .457.177.73.684.73.186 0 .4-.058.536-.152l-.124-.367c-.128.074-.268.111-.379.111-.214 0-.284-.132-.284-.33v-.891h.7v-.392zm-6.403 1.972V20a.73.73 0 0 0-.775-.784c-.251-.004-.51.074-.692.351-.136-.218-.35-.351-.651-.351a.65.65 0 0 0-.577.293v-.244h-.428v1.971h.432v-1.093c0-.342.189-.524.482-.524.284 0 .428.186.428.52v1.097h.433v-1.093c0-.342.198-.524.482-.524.293 0 .432.186.432.52v1.097l.434.001z" fill="#231f20"/><path d="M143.772 14.68v-.288h-.075l-.087.198-.086-.198h-.076v.288h.054v-.217l.081.187h.055l.081-.188v.218h.053 0zm-.476 0v-.239h.096v-.049h-.246v.049h.096v.239h.053.001z" fill="#f79410"/><path d="M135.247 15.916h-6.49V4.242h6.49v11.674z" fill="#ff5f00"/><path d="M129.168 10.079c0-2.368 1.108-4.477 2.833-5.837a7.38 7.38 0 0 0-4.584-1.587c-4.096 0-7.417 3.324-7.417 7.424s3.321 7.424 7.417 7.424a7.38 7.38 0 0 0 4.584-1.587c-1.725-1.359-2.833-3.469-2.833-5.837z" fill="#eb001b"/><path d="M144.003 10.08c0 4.1-3.321 7.424-7.417 7.424-1.663.002-3.278-.557-4.585-1.587 1.726-1.359 2.834-3.469 2.834-5.837s-1.108-4.477-2.834-5.837c1.307-1.03 2.922-1.59 4.585-1.587 4.096 0 7.417 3.324 7.417 7.424" fill="#f79e1b"/></g><g fill-rule="evenodd"><path d="M12.412 10.603c-.014 1.08.962 1.682 1.697 2.04.755.368 1.009.603 1.006.932-.006.503-.603.725-1.161.734-.974.015-1.541-.263-1.991-.473l-.351 1.642c.452.208 1.289.39 2.156.398 2.037 0 3.369-1.005 3.376-2.564.008-1.978-2.736-2.088-2.718-2.972.007-.268.262-.554.823-.627.277-.037 1.044-.065 1.912.335l.341-1.589c-.467-.17-1.067-.333-1.815-.333-1.917 0-3.265 1.019-3.276 2.478zm8.366-2.341c-.372 0-.685.217-.825.55l-2.909 6.947h2.035l.405-1.119h2.487l.235 1.119H24l-1.565-7.496h-1.656zm.285 2.025l.587 2.815h-1.609l1.021-2.815zM9.945 8.262L8.34 15.758h1.939l1.604-7.496H9.945zm-2.869 0l-2.019 5.102-.817-4.338c-.096-.484-.474-.764-.894-.764h-3.3L0 8.48c.677.147 1.447.384 1.913.638.285.155.367.29.46.659l1.547 5.982h2.05l3.142-7.496H7.076z" fill="#1a1f71"/><path d="M51.068 17.202c.783 0 1.506.425 1.407 1.484-.12 1.259-.794 1.955-1.858 1.958h-.929c-.134 0-.198.109-.233.333l-.18 1.143c-.027.173-.116.258-.246.258h-.865c-.138 0-.186-.088-.155-.285l.714-4.581c.035-.225.12-.309.274-.309h2.07.002zm-1.408 2.452h.704c.441-.017.733-.322.762-.872.018-.34-.212-.583-.577-.581l-.663.003-.227 1.45zm5.167 2.372c.079-.072.16-.109.148-.02l-.028.212c-.014.111.029.17.133.17h.768c.129 0 .192-.052.224-.252l.474-2.971c.024-.149-.013-.222-.126-.222h-.845c-.076 0-.113.043-.133.159l-.031.183c-.016.095-.06.112-.101.016-.143-.339-.509-.492-1.019-.48-1.185.025-1.984.924-2.069 2.077-.066.892.573 1.592 1.416 1.592.611 0 .885-.18 1.193-.461l-.002-.002zm-.644-.457a.77.77 0 0 1-.792-.906c.074-.499.551-.905 1.061-.905a.77.77 0 0 1 .792.906c-.074.499-.55.906-1.061.906zm3.866-2.637h-.779c-.161 0-.226.12-.175.267l.967 2.832-.949 1.348c-.08.113-.018.215.094.215h.876c.051.006.103-.003.149-.026s.085-.058.111-.102l2.975-4.267c.092-.131.049-.269-.102-.269h-.829c-.142 0-.199.056-.28.174l-1.241 1.798-.554-1.802c-.032-.109-.113-.169-.263-.169h-.001z" fill="#113984"/><path d="M64.413 17.201c.783 0 1.506.425 1.407 1.484-.12 1.259-.794 1.955-1.858 1.958h-.929c-.134 0-.198.109-.233.333l-.18 1.143c-.027.173-.116.258-.246.258h-.865c-.138 0-.186-.088-.155-.285l.715-4.582c.035-.225.12-.309.274-.309h2.07v.001zm-1.408 2.452h.704c.441-.017.733-.322.762-.872.018-.34-.212-.583-.577-.581l-.663.003-.227 1.45zm5.167 2.372c.079-.072.159-.109.148-.02l-.028.212c-.014.111.029.17.133.17h.768c.129 0 .192-.052.224-.252l.473-2.971c.024-.149-.013-.222-.126-.222h-.844c-.076 0-.113.043-.133.159l-.031.183c-.016.095-.06.112-.101.016-.143-.339-.509-.491-1.019-.479-1.185.024-1.984.924-2.07 2.077-.066.892.573 1.593 1.416 1.593.611 0 .885-.18 1.193-.462l-.004-.002zm-.643-.457a.77.77 0 0 1-.792-.906c.074-.499.551-.906 1.061-.906a.77.77 0 0 1 .792.906c-.074.499-.551.906-1.061.906zm3.544.823h-.887a.1.1 0 0 1-.045-.008c-.014-.006-.027-.015-.037-.026s-.018-.025-.023-.04-.006-.03-.004-.046l.779-4.936a.15.15 0 0 1 .148-.12h.887a.1.1 0 0 1 .045.008c.014.006.027.015.037.026s.018.025.023.04.006.03.003.046l-.779 4.936a.15.15 0 0 1-.053.086c-.027.022-.06.034-.095.035v-.001zM60.226 3.685h3.936c2.113 0 2.909 1.07 2.786 2.642-.203 2.595-1.772 4.031-3.853 4.031h-1.05c-.286 0-.477.189-.555.701l-.446 2.977c-.029.193-.131.305-.283.32h-2.473c-.233 0-.315-.178-.254-.563l1.508-9.543c.059-.382.268-.564.685-.564z" fill="#009ee3"/><path d="M57.764.4h3.94c1.109 0 2.426.036 3.306.813.588.519.897 1.345.826 2.235-.242 3.008-2.041 4.694-4.455 4.694h-1.943c-.331 0-.55.219-.643.813l-.543 3.454c-.036.223-.132.356-.305.372h-2.431c-.269 0-.365-.203-.295-.652L56.97 1.056c.07-.445.315-.656.795-.656z" fill="#113984"/><path d="M58.852 8.604l.688-4.356c.06-.382.269-.565.686-.565h3.936c.651 0 1.178.102 1.591.29-.395 2.678-2.127 4.166-4.395 4.166h-1.939c-.26.001-.451.131-.566.465z" fill="#172c70"/></g><defs><linearGradient id="A" x1="166.5" y1="4" x2="144" y2="20" gradientUnits="userSpaceOnUse"><stop stop-color="#0a2859"/><stop offset=".242" stop-color="#195c91"/><stop offset=".471" stop-color="#0f7c9d"/><stop offset=".735" stop-color="#1f9c93"/><stop offset="1" stop-color="#229a4c"/></linearGradient><clipPath id="B"><path fill="#fff" transform="translate(144 4)" d="M0 0h24v16H0z"/></clipPath><clipPath id="C"><path fill="#fff" transform="translate(72)" d="M0 0h24v24H0z"/></clipPath><clipPath id="D"><path fill="#fff" transform="translate(120)" d="M0 0h24v24H0z"/></clipPath><path id="E" d="M82.128 8.462v2.814h.704v-1h.296l.844 1h.86l-.926-1.037c.38-.032.772-.358.772-.864 0-.592-.465-.913-.984-.913h-1.566zm.704.63h.804c.193 0 .333.151.333.296 0 .187-.182.296-.323.296h-.815v-.592z"/></defs></svg>